<?xml version="1.0" standalone="no"?><!DOCTYPE svg PUBLIC "-//W3C//DTD SVG 1.1//EN" "http://www.w3.org/Graphics/SVG/1.1/DTD/svg11.dtd"><svg t="1643957871589" class="icon" viewBox="0 0 1024 1024" version="1.1" xmlns="http://www.w3.org/2000/svg" p-id="5011" xmlns:xlink="http://www.w3.org/1999/xlink" width="300" height="300"><defs><style type="text/css"></style></defs><path fill="#F6C5B8" d="M956.4 567.2c-2.6-3.5-4.6-6.9-3.6-11.4 7.1-6.4 7.9-12.2-1.1-17.6-4.1-2.4-7.6-5.5-7.6-10.8-0.2-0.1-0.4-0.1-0.5-0.2 0.1 0 0.2-0.1 0.3-0.2l0.3 0.4c5-0.9 8.7-2.5 5.4-8.6-1.8-0.1-3.6-0.3-5.4-0.4-0.1 0.1-0.2 0.3-0.3 0.4l0.3-0.4c-2.3-3.3-3.4-7-3.1-11-0.2-16.5 3.6-33.7-8.5-48.1 1-0.9 1.9-1.9 2.9-2.8 1.9-2.9 3.7-5.7 5.6-8.6 0.2-3-0.5-6.3 2.6-8.5-0.1-5.8-0.9-11.2-8.5-11.5v0.2c-1-1.8-1.9-3.5-2.9-5.3 0.1-1 0.1-1.9 0.2-2.9-5.5-0.5-5.6-4.4-5.4-8.5 0.7-1.1 2.4-2.8 2.1-3.4-10.4-20.4-8.3-44.5-19.4-64.6 1.9 0 3.9 0.1 5.8 0.1-0.5-5.4-5.5-7.6-8.3-11.4-5.6-7.5-15-7.2-22.5-10.8 12.7-5.9 7.5-12.7-1-15.3-14.1-4.2-12.8-10.1-4.9-18.9 1-0.9 1.9-1.7 2.9-2.6 3-0.6 5.9-1.8 4.9-5.4-1.2-4-5.3-2.9-8.4-3.6-4.6-1-14.8 3-12-5.5 2.9-8.8 0.3-17 2.2-25.5 2-8.6-1.5-15.4-12.4-8.5-16.3-5.8-28.1-22.1-28.5-39.4-1.6-3.9-4.6-6.6-8.2-8.6-0.3-5.7-4.3-5.7-8.5-5.6-0.4-10-3.8-15-14-8.3-0.1 0.8-0.2 1.6-0.3 2.5-0.9 0-1.8 0.2-2.7 0.5-8.4-8.5-19.6-11.1-30.4-14.6 0.1-8.3-3.3-15-12.2-11.2-9.6 4.2-9.6-0.4-11.4-7.2-1.5-5.5-4.5-12.9-11.7-11.7-10.6 1.9-21-0.3-31.6 0.7-13.3 1.2-28.4-0.6-36.9-14.8-1.6-2.7-4.3-3.3-7.3-2.1-4.1 1.6-7.5 1.6-8.4-3.7-1.6-9.2-7-7.1-10.1-2.2-3.2 5.1-8.3 4.7-12.3 6.9l-5.4-8.4c-6.9-7.9-17.8-13.8-25.5-9.5-10.5 5.9-19.3 3.7-28.8 1.9-15.4-3-26.2-14.1-38.1-23.3-7.9-6.1-15.4-9.4-26.8-6.9-17.3 3.8-22.9 15.8-28 29.6-1.9 0.1-3.8 0.3-5.7 0.4-2.7-1.2-5.4-2.4-8.2-3.7-9-9-16.1-3.9-23 3.1-16.2 2.9-29.8-7-45-8.9-16.3-4.8-24.8-0.3-28.5 15.3-0.8 3.3-2.6 4.6-5.6 5l-45.1-0.3c-7.4 1.1-14.9 1.8-19.8 8.6-9.7 5.1-15.4 15.4-25.8 19.5 0.2 0.1 0.4 0.3 0.6 0.4h-0.1s-0.4-0.5-0.4-0.4c-14.2-0.3-19.1 5.3-19.7 22.8l-2.7 5.7c-10.9 6.3-19.8 15.8-32.3 19.2-0.5 0-1 0.1-1.7 0.4-11.4 2.1-16.6 9.3-16.7 20.5 0 4.7-0.1 9.4-3.1 13.5-4 0.1-6.7 2.2-8.3 5.8-7.9 6.4-16.2 12.5-19.8 22.6-2.6-4.2-6.6-8.9-10.3-2.8-3.4 5.5-16.1 10.9-3.5 19.7 2 1.2 4.2 4.8 2.6 4.8-12.9-0.5-20.3 9.7-30.2 14.8-16.5 8.5-16.4 9.8-1.4 23.3 1 2.6 2 5.1 3 7.7-8.9 1.9-9.3 7.3-5.8 14.3-4.1 0.6-6.9 1.7-2.7 6 1.6 6-2.8 9.5-5.8 13.7-4.2 1.9-4.7 5-2.6 8.7-6.5 6.7-0.7 13.2 0.3 19.8-6.2 11.8-7.3 24.6-5.9 37.5 0.8 8.3-1.1 14.7-8.7 18.9-10.7 7.4-3.3 16.8-2.9 25.5-0.9 0.9-1.8 1.7-2.8 2.6-8.2-0.3-11.3 3.1-8.4 11.2 2.1 6.1 1.7 12.9 6.1 18.3-13.2 6.9-2.7 14.4-0.5 21.6-3.9 0.3-10.5-0.5-2.9 5.5 2.8 2.3 1 3.9 0.3 5.9-2.5 1.3-6.2 3.6-3.3 6 9.2 7.6 4.7 18.2 3.6 25.5-2.8 17.9-4.9 35.3-0.6 53.1-9.8 0-7.1 9.8-11.3 14.3-1.8 5.3 2.3 5.2 5.5 6-0.3 6.4 1.8 11.5 6.8 16 6.2 5.5 11.6 11.9 13.4 20.4-5 7.1-1.5 15.1-2.7 22.6-3.1 3.8 0.7 4.4 2.7 5.8 7.5 16.4 27.4 20.8 36.3 35.8 0.1 0.4 0.3 0.8 0.6 1 0.4 0.7 0.8 1.5 1.2 2.3 1.6-0.8 3.1-1.5 4.7-2.3h0.1l4.8 0.3 0.3 7.5c-3.4 0.5-5 2.4-5.2 5.7 1.8 9.8 1.6 20.7 14.6 23.8 2.6 0.6 4.9 2.6 3 6.3-1.4 2.7-9.7-1.4-5.9 5.6 2.8 5.2 6.2 0.7 9.5-0.3 1.4-0.4 3.6 0.4 5 1.3 11.9 7.7 25.6 12.7 36.1 22.8 5.5 0.5 8.8 3.9 11.2 8.5 0.4 3.4-4 6.9-0.9 9.9 2.9 2.8 6.6 1.8 9.2-1.4 4.1 0.3 4.8 3.1 6 6.5 1.8 5.2 5.4 12 10.5 11.9 20.4-0.2 25.3 16 35.4 28.4 5.7 7 4 18 14.4 22 14 5.3 27.7 10.7 39 22.4 3.6 3.8 4.4 13.7 13.2 12.7 7.5-0.6 11.6 9.4 19.9 6.3 9.4 2.7 18.9-5 28.4 0.1 1.6 3.7 4.4 5.6 8.4 5.6 7-1.8 12.6 7.1 20 2.8 4.6-1.9 3.2 6.9 8.2 4.5 11.5-5.5 22.8-1.5 34.1 1.3 6 5.4 12.3 8.4 19.8 2.8 9.9 4.9 18.5 3.3 25.4-5.6 1.1-0.2 2.1-0.4 3.2-0.6l-0.4 0.8c9.7 8.2 17-3 25.6-3.2l16.5 3.3c0.1-0.2 0.3-0.5 0.4-0.7l0.1 0.1-0.5 0.6c4.7 5.1 11 5.2 17.2 5.4 6.5 0.8 3.8-7.6 8.5-8.5 9.9 5.9 10.8-3.5 14.2-8.4 3.1-0.1 6.4 0.4 8.4-2.8 4.8-1.3 4.9-8.7 10.9-8.5 2.6 7.2 6.5 7.6 11.5 2.3 5-2.5 9.6-2.2 14.6 0.5 6.5 3.5 11.8 2.6 13.6-5.7 2.3-4.3-4.2-12.3 5.6-13.4-0.1 0.7 0 1.5 0.2 2.2 5 5.2 11.2 2.2 16.9 2.7 5.3 0.7 8.3-6.6 12.6-5 20.8 7.9 22.6-7.8 26.8-20.7 0-1.7-0.1-3.4-0.1-5.1 12.1-6.3 24.2-12.6 25.9-28.4-0.1 0-0.2-0.1-0.3-0.1 0 0 0-0.1 0.1-0.1l0.2 0.2c6.9-0.9 13.7-1.9 19.7-5.8 6.5-5.7 13-11.5 19.5-17.2 0.1-3.7 0.1-7.3 0.2-11 0-3.8 0.1-7.6 0.1-11.4 1-2.2 3-2.6 5.2-2.7 2 0.9 4.1 1.9 6.1 2.8 6 5 10.5 3.3 14.1-3 2.4-1.3 5.7-2.1 7.1-4.1 10.5-14.8 23.3-26 40.5-31.1 2-0.2 4.1-0.7 6.1-1.5 1.9-5.7 3.8-11.4 5.7-17 3.3 0 6 0 8.8-3 9.3-10.1 16.7-22.4 29.3-29.2 5.6-3.1 7.6-7.7 7.4-14-0.2-6.9 2.8-13.1 10.5-11.4 7.8 1.8 8.5-1.6 9.7-7.4 0.9-4.4 3-9 7.8-11.3 4.1-1.6 6.8-4.5 8.6-8.4 5.9-4.8 6.9-10.4 3-16.9-0.1-0.9-0.1-1.8-0.1-2.7-5.1-9.2 8.5-16.3 2.8-25.6 2.6-13.1 7.8-25.6 8.7-39.1 10.7-0.5 12.9-5.4 6.5-14z m-382.8 353c-0.1 0-0.1-0.1-0.2-0.1 0.1 0 0.1-0.1 0.2-0.2v0.3z m111.9-754.3c0.1 0.7 0.3 1.4 0.8 2.3-0.1 0-0.2 0.1-0.3 0.1-0.6-1-0.7-1.8-0.5-2.4zM452.1 914.3z m-19.9-67.4c0-0.2 0-0.3 0.1-0.5 0.2 0 0.3-0.1 0.4-0.1-0.1 0.3-0.3 0.5-0.5 0.6zM156.4 443.1c0.6 0.5 0.9 1 1.1 1.5-0.4-0.4-0.9-0.9-1.4-1.5h0.3z m7.4 103.8s0-0.1 0 0z m516.4-270.2l-0.3 0.6c0-0.2 0.2-0.4 0.3-0.6zM537.3 765.8h0.3c-0.1 0.1-0.1 0.1-0.1 0.2l-0.2-0.2zM243 685.4s0-0.1 0 0c0-0.1 0.1-0.1 0.1-0.2 0 0.1 0.1 0.1 0.1 0.2h-0.2z m481.2-54.9c-0.5 0.1-1 0.2-1.6 0.3 0.3-0.3 0.5-0.6 0.8-0.9 0.3 0.2 0.5 0.4 0.8 0.6zM257 609.1z m497.5-79.2h-0.1 0.1z m13.4-10.4c-0.1 0.9-0.3 1.7-0.8 2.3-0.2-0.8 0.1-1.5 0.8-2.3z m-123.7 64.3l-0.1-0.1c0.1 0 0.1 0 0.2-0.1l0.1 0.1c-0.1 0.1-0.1 0.1-0.2 0.1z m-181.1 53.5v-0.4c0.1 0.1 0.2 0.3 0.3 0.4h-0.3z m-33.6-5.6v0.2c-0.1-0.1-0.2-0.1-0.2-0.2h0.2z m0.1 1v-0.5 0.5z m-0.1-1z m36.9-63.1v0.3c0-0.1-0.1-0.1-0.1-0.2s0.1-0.1 0.1-0.1z m67.5-96.5c0-0.4-0.1-0.8-0.1-1.2 0.2 0.3 0.3 0.6 0.4 0.9-0.2 0.1-0.2 0.2-0.3 0.3z m39.7 49.4zM436.3 625.1c-0.4-1-0.3-2.1 0.9-3.5 0.5-0.1 1-0.1 1.4 0-0.7 0.8-1.4 2-2.3 3.5z m94-194.2c0 0.2 0.1 0.3 0.1 0.5-0.2-0.1-0.3-0.1-0.5-0.2 0.1 0 0.3-0.1 0.4-0.3z m-44.8 9.1c-0.1-0.3-0.2-0.6-0.2-0.9 0.2 0.1 0.5 0.2 0.7 0.3-0.2 0.3-0.3 0.4-0.5 0.6zM366.8 610.8c0.3 0.3 0.5 0.7 0.4 1.1h-1.1c0.3-0.4 0.5-0.8 0.7-1.1zM303 516.9c0.4-0.6 1-0.8 1.9-0.4-0.7 0.1-1.3 0.2-1.9 0.4z m262.2 128.5v0.4c-0.1-0.1-0.3-0.2-0.4-0.3 0.1-0.1 0.2-0.1 0.4-0.1z m128.2-111.6l0.6 0.6c-0.2 0.1-0.5 0.1-0.7 0.1 0-0.2 0-0.4 0.1-0.7zM459.3 708.4c0.1 0 0.1 0.1 0.2 0.1-0.1 0-0.1 0-0.2-0.1z m1.1-25.8s0.1-0.1 0 0l0.1-0.1c0 0.1 0 0.1-0.1 0.1z m114.1-17c-0.4-0.1-0.7-0.4-1-0.7 0.3 0.2 0.6 0.4 1 0.7z m38.7-53.7v-0.2c0.4 0.1 0.8 0.2 1.1 0.3-0.4 0-0.8 0-1.1-0.1z m-311.9-5.3c-0.4 0.9-0.9 1.4-1.4 1.7 0.5-0.6 0.9-1.2 1.4-1.7z m301.6 38.3c-0.6 0.3-1.1 0.5-1.7 0.8 0.5-0.5 1.1-0.7 1.7-0.8z m13.1-24.5h0.2v0.1c-0.1-0.1-0.2-0.1-0.2-0.1z m25.4 2.7s0 0.1 0 0c0 0.1 0 0.1 0 0 0 0.1 0 0 0 0zM514.3 323.6c0.8-0.1 1.4-0.1 2 0.1-0.7 0-1.4-0.1-2-0.1z m260.9 253.2v1.2h-0.9c0.2-0.5 0.5-0.9 0.9-1.2z m4.7-41.2c0.1-0.2 0.1-0.5 0.2-0.7 0.1 0.2 0.2 0.5 0.3 0.7h-0.5zM514 323.6h0.3l-0.2 0.2c-0.1-0.1-0.1-0.1-0.1-0.2z m-107.2-22.4v0.1c-0.1-0.1-0.1-0.2-0.2-0.3h0.1s0 0.1 0.1 0.2zM342.2 413c0.3-1.4 0.6-2.9 0.5-4.6 0.8 1.4 0.2 3-0.5 4.6zM225.6 521.7c1-0.5 1.7-0.9 2.3-1.3 0 1.3-0.7 1.3-2.3 1.3z m383.3 199.2c-1.5 0.1-2.9 0-4.1-0.7 1.7 0.3 3.2 0.5 4.6 0.5-0.1 0.1-0.3 0.2-0.5 0.2zM300.7 430.1c0.2-0.2 0.4-0.3 0.6-0.4-0.2 0.1-0.4 0.2-0.6 0.4z m371.9 207.2c0.1 0 0.1 0.1 0.2 0.1-0.1 0-0.2-0.1-0.2-0.1-0.1 0 0 0 0 0z m46.7-4.6c0.1 0.1 0.3 0.2 0.4 0.3-0.3 0-0.5-0.1-0.7-0.2 0.1 0 0.2-0.1 0.3-0.1z m5.1-15.1c0-0.1-0.1-0.3-0.1-0.4h0.1v0.4z m-20.9-284.5c0.1 0.4 0.1 0.8 0.2 1.2 0-0.1-0.1-0.1-0.1-0.1-0.6-0.5-0.5-0.8-0.1-1.1z m-347.9-17.9c0.1 0.4 0.2 0.9 0.4 1.4-0.4-0.5-0.8-1.1-1.4-1.7 0.4 0.1 0.7 0.2 1 0.3z m-22.3 53.6z m17.3 357.9c0 0.1 0 0.1 0 0 0 0.1 0 0.1 0 0z m175.5-4l-0.6-0.6c0.2 0.1 0.3 0.2 0.5 0.3 0.1 0.1 0.1 0.2 0.1 0.3z m19.4-469.6c-0.2-0.7-0.5-1.4-0.8-2 0.2 0 0.5-0.1 0.8-0.1v2.1zM489.8 276c-0.3-0.2-0.6-0.3-0.9-0.5 0.3 0.2 0.6 0.4 0.9 0.5zM476 292.4c1.4-0.2 2.7-0.4 3.8-0.7-1 0.8-2.2 1.1-3.8 0.7zM291 394.3c0-0.1 0-0.1 0 0 0-0.1 0-0.1 0 0 0-0.1 0-0.1 0 0z m-19.8-22.7zM226 391.4c-0.1 0-0.1 0 0 0-0.1 0 0 0 0 0zM755.4 624c-0.3-0.5-0.5-1-0.6-1.5 0.2 0.4 0.4 0.8 0.7 1.1-0.1 0.1-0.1 0.2-0.1 0.4z m5.8-28.4c0.1 0 0.2 0.1 0.3 0.1-0.5 0.2-1.1 0.4-1.7 0.5 0.5-0.2 0.9-0.4 1.4-0.6z m47-17.6c0-0.1 0-0.1 0 0 0-0.1 0-0.1 0 0zM488.8 275.5c-0.2 0-0.3 0.1-0.4 0.2v-0.3c0.1 0.1 0.3 0.1 0.4 0.1z m232 387.5c-0.1-0.1-0.1-0.2-0.2-0.3h0.3c-0.1 0.1-0.1 0.2-0.1 0.3z m45-45.5h0.2c0 0.1-0.1 0.1-0.2 0.2 0.1 0 0-0.1 0-0.2z m42.4-33.9h0.2v0.1c-0.1 0-0.1 0-0.2-0.1zM551 238.8s0-0.1 0 0c0-0.1 0-0.1 0 0z m-172.6 36.7c-0.3-0.4-0.5-0.8-0.5-1.2 0.2 0.4 0.4 0.7 0.7 1.2h-0.2z m-20.6-8.7c-0.5-0.2-0.9-0.5-1.4-0.8h1.5c-0.1 0.3-0.1 0.5-0.1 0.8zM192 555.3h-0.3c0.1-0.1 0.2-0.1 0.3-0.2v0.2z m528.8 150.5c0.2-0.4 0.4-0.8 0.7-1.1-0.1 0.3-0.3 0.7-0.4 1-0.1 0-0.2 0.1-0.3 0.1z m78.9-105.2z m-28.3-257.2z m-590.7 147s0-0.1 0 0c0-0.1 0 0 0 0z m0 0.1c0 0.1 0.1 0.2 0.2 0.3l-0.2-0.2v-0.1z m428.9 287.8z m129.9-70.2c0.1 0 0.2 0.1 0.3 0.1-0.4 0.2-0.9 0.3-1.3 0.4 0.3-0.3 0.6-0.5 1-0.6v0.1z m51.7-84.9c0.1 0 0.1 0 0 0 0.1 0 0.1 0 0 0 0.1 0 0.1 0 0 0z m8.5-231.8c0-0.1 0.1-0.3 0.1-0.4 0 0.1 0.1 0.3 0.1 0.4h-0.2z m-28.3-48c0-0.1 0.1-0.1 0.2-0.2v0.2h-0.2z m-40-72.3s-0.1 0 0 0c0-0.1 0 0 0 0zM160.9 541.6c0-0.5-0.1-0.9-0.2-1.2 0.7-0.2 0.6 0.4 0.2 1.2z m8.5 22.2c-0.1 0.3-0.3 0.6-0.4 0.9-0.1-0.3-0.2-0.6-0.4-0.9h0.8z m22.6 33.9c0 0.1 0 0.1 0 0 0 0.1 0 0.1 0 0 0 0.1 0 0.1 0 0l0.3-0.3c0 0.2 0.1 0.3 0.1 0.5-0.1-0.1-0.2-0.1-0.4-0.2 0 0.1 0 0.1 0 0 0 0.1 0 0.1 0 0 0 0.1 0 0.1 0 0z m67.9-288.2c0.1-0.2 0.1-0.3 0.2-0.4 0.1 0.1 0.2 0.3 0.3 0.4h-0.5z m-61.7 33.9c0.1 0.2 0.1 0.5 0.2 0.7-0.2-0.2-0.4-0.5-0.6-0.7h0.4z m154.9 423.9c-0.1 0.2-0.2 0.4-0.4 0.6-0.1-0.2-0.1-0.4-0.2-0.6h0.6z m479.8-162.2c0.1-0.2 0.1-0.4 0.2-0.7l0.6 0.3c-0.3 0.2-0.5 0.3-0.8 0.4zM641.4 247.3z m-423.9 70.6c-0.1 0.1-0.3 0.1-0.4 0.1 0.1-0.1 0.3-0.1 0.4-0.2v0.1z m215.8 506c0.9-0.7 2.1-0.4 3.8 1.7 0.2 0.3 0.4 0.5 0.6 0.8-0.1 0-0.1 0.1-0.2 0.1-1.6-0.6-3-1.5-4.2-2.6zM743 733.5c0.1 0 0.1-0.1 0.2-0.1-0.1 0-0.1 0.1-0.2 0.1z m133.1-195.2c0.1 0 0.1 0 0 0 0.1 0 0.1 0 0 0z m4.6-11.2c0-0.1-0.1-0.2-0.1-0.4 0.1-0.1 0.3-0.1 0.4-0.2l-0.3 0.6zM644.3 247.3h0.5c-0.1 0-0.1 0.1-0.2 0.2-0.1-0.1-0.2-0.2-0.3-0.2z m-273.8-28.5v0.4c-0.1 0-0.2-0.1-0.3-0.1 0-0.2 0.1-0.3 0.3-0.3z m-214 232.6c-0.1 0.3-0.1 0.7-0.2 1-0.4-0.2-0.7-0.3-0.6-0.3 0.3-0.3 0.5-0.5 0.8-0.7z m1.4 4.9l0.2 0.2h-0.3c0.1-0.1 0.1-0.2 0.1-0.2z m308.6 376.4l-0.3-0.3h0.3v0.3z m200.4-37.1c0.2 0 0.4-0.1 0.7-0.1-0.2 0.3-0.5 0.5-0.7 0.8v-0.7z m143.7-508.1c0-0.1 0-0.1 0 0 0-0.1 0-0.1 0 0z m-234.1-99.6v-0.3c0.1 0 0.3 0.1 0.4 0.1-0.2 0.1-0.3 0.2-0.4 0.2z m-173.3 4.6h0z m-168.8 88.7c-0.3 0.2-0.5 0.3-0.8 0h0.8z m115.9-70.7z m337 584.8c0 0.1 0.1 0.2 0.1 0.3h-0.8c0.2-0.1 0.4-0.2 0.7-0.3zM633 171v-0.6c0.8 0.1 1.4 0.3 1.9 0.5-0.6 0-1.2 0.1-1.9 0.1zM141.1 481.8s0.1 0 0 0c0 0.1 0 0.1 0 0z m-2.6 56.5c-0.1 0.1-0.1 0.1 0 0-0.1 0.1-0.1 0-0.2 0h0.2z m251.6 306.1c0 0.1 0.1 0.1 0 0 0.1 0.1 0 0 0 0z m418.1-150.5v0.8c-0.2-0.1-0.4-0.2-0.6-0.2 0.2-0.3 0.4-0.5 0.6-0.6z m48-42.5z m0.2-0.1c0 0.1 0.1 0.2 0.1 0.2-0.1 0-0.2-0.1-0.3-0.1 0.1 0 0.2-0.1 0.2-0.1z m31-44.9c0-0.1-0.1-0.1-0.1-0.1h0.2l-0.1 0.1z m-0.1-0.2h-0.1l0.1-0.1v0.1z m-753-63.1l1.2 0.9h-0.2c-0.4-0.3-0.7-0.6-1-0.9z m157.5 253.5l0.1 0.1c-0.1 0-0.1 0-0.1-0.1-0.1 0.1-0.1 0 0 0z m612.5-221.4c0-0.1 0-0.1 0 0 0-0.1 0-0.1 0 0 0-0.1 0-0.1 0 0 0-0.1 0-0.1 0 0 0-0.1 0 0 0 0zM443.6 154c0-0.1 0-0.1 0 0 0-0.1 0.1-0.1 0 0 0.1-0.1 0-0.1 0 0z m5.6 737.7c0.1 0 0.1 0 0 0-0.1 0.2-0.1 0.3-0.2 0.5-0.1-0.2-0.2-0.4-0.3-0.5h0.5z m356.3-174.4c0.4 0.9 0.6 1.8 0.8 2.6-0.4-0.7-0.7-1.5-0.8-2.6z m36.8-393.7h-0.1c0-0.1 0.1-0.1 0.1-0.2v0.2zM729.1 187.9c0-0.1 0.1-0.1 0.1-0.2v0.2c-0.1 0.1-0.1 0.1-0.1 0z m-8.4-14.1c-0.1 0-0.1 0 0 0-0.1 0-0.1 0 0 0-0.1 0-0.1 0 0 0-0.1 0-0.1 0 0 0 0-0.1 0-0.1 0.1-0.1l-0.1 0.1zM144 693.8z m217.6 197.9l-0.2 0.2c0-0.1-0.1-0.1-0.2-0.2h0.4z m506.6-189c0 0.3-0.1 0.6-0.1 0.9-0.1-0.6-0.2-1.1-0.2-1.7 0 0.2 0.1 0.5 0.3 0.8z m53-158.6h0.8c-0.1 0.4-0.1 0.7-0.2 1.1-0.2-0.4-0.4-0.8-0.6-1.1zM491.6 128.5zM291 168.1c-0.1 0.1-0.1 0.1 0 0-0.1 0.1-0.1 0.1 0 0-0.1 0.1-0.1 0.1 0 0z m-59.5 630.4c0.1 0 0.1 0 0 0 0.1 0 0.1 0 0 0 0.1 0 0 0 0 0zM491.7 126zM862 283.9c-0.1 0.1-0.1 0.2-0.1 0.2 0-0.1 0-0.1 0.1-0.2z m-48.5-73.7c0.1 0 0.1 0 0.1 0.1 0 0-0.1 0-0.1-0.1zM121.4 436.7h-0.2v-0.2l0.2 0.2z m-17 242.8l0.1 0.1c-0.1 0-0.1 0-0.1-0.1 0 0.1 0 0.1 0 0z m692.5 79.3l0.1 0.2h0.1v0.1l-0.1-0.1c-0.1 0-0.1 0-0.2-0.1 0 0 0-0.1 0.1-0.1z m1.5 15.7l0.3 0.3h-0.1c-0.1-0.1-0.1-0.2-0.2-0.3z m6.5-586.2c-0.1-0.2-0.1-0.3-0.2-0.5 0.2 0 0.4 0 0.6-0.1-0.1 0.3-0.2 0.5-0.4 0.6zM97.2 523.5c0.4 0.2 0.8 0.5 1.2 0.7h0.5c0 0.1-0.1 0.3-0.1 0.4-0.1-0.2-0.3-0.3-0.4-0.5h-1.1c0-0.1-0.1-0.4-0.1-0.6z m80.7 260.8c-0.1 0-0.1-0.1 0-0.1v0.1z m584.8 28.3z m158.6-401.4zM335.7 129.1v-0.3s0.1-0.1 0.3-0.2h0.1c-0.1 0.3-0.2 0.4-0.4 0.5zM378.4 920l0.1 0.1h-0.2s0-0.1 0.1-0.1zM486 942.4c0.1 0 0.2 0.1 0.3 0.1-0.1 0.1-0.2 0.1-0.3 0.2v-0.3z" p-id="5012"></path></svg>
