<?xml version="1.0" standalone="no"?><!DOCTYPE svg PUBLIC "-//W3C//DTD SVG 1.1//EN" "http://www.w3.org/Graphics/SVG/1.1/DTD/svg11.dtd"><svg t="1643957877439" class="icon" viewBox="0 0 1024 1024" version="1.1" xmlns="http://www.w3.org/2000/svg" p-id="5161" xmlns:xlink="http://www.w3.org/1999/xlink" width="300" height="300"><defs><style type="text/css"></style></defs><path fill="#F6C5B8" d="M953.8 445.7c3.2-1.3 7-1.2 6-6.2-0.8-4.5-4.3-4.6-7.8-4.6-7.5 4.5-13.5 2.4-18.4-4.2v0.4c-5.4-1.6-9.3-4.6-10.2-10.5 6.7-0.1 12-4.4 18.1-6.2 1.9-0.6 2.2-2.2 2.2-3.9-6.6-2.3-15.6-2.6-19.3-7.3-3.9-5-7.9-7.4-13.2-9.1-1.4-1.3-2.8-2.6-4.2-4 2.1-8.5 3.1-17.4 11.1-23.7-5.4 1.7-10 3.9-15.2 3.3v1.9l-1.8 0.3c-6.4-3.1-7.5-7.1-2-12.2 1.3-1.4 2.6-2.8 3.9-4.3-5.9 0.4-11.5 0.2-12-7.6 0.6-0.1 1.2-0.2 1.7-0.5 1.2-2.3 2.2-4.5-2-4.3-2.2-0.1-4.6 0.5-6.1-1.9-0.7-0.8-1.4-1.5-2.2-2.3-0.8-1.6-2.3-1.7-3.8-1.9-1.5-2.6-6.6-1.4-6.2-6-0.1-4.2-3.1-4.2-6.1-4.1-2.6-1.4-5.2-2.9-7.9-4.3 0-3.1-0.6-5.7-4.3-6.1-1.7-2.6-4.5-4.5-4.4-8-2.3 3-9.3 3.9-7.2 8.1 2.4 4.7 4.2 11.6 11.5 12.4 1.2 3.9-5.1 2.9-4.4 6.9 3.6 1 7.1 2 10.6 3l-0.2 0.8c-6.7 7.8-11.2 1.1-16.1-2.6 0.7-1.4 1.3-2.7 2-4.1-2-5.1-3.9-10.4-8.1-14.3 0-2.7-0.1-5.4-0.1-8.1 3.7-2.6 1.4-5.2 0.2-7.9l9.6-10.2c0.2-0.8 0.3-1.5 0.5-2.3-3.2-3.7 3.5-9-1.9-12.4-0.1 0.4-0.3 0.7-0.5 1h-0.1c0.2-0.3 0.4-0.7 0.6-1-2.6-3.6-10.3-5.4-4.1-12 0.6 0 1.2-0.1 1.8-0.2 0.7-0.7 1.4-1.4 2-2.1 7.1-2.8 0-8.3 2.3-11.9 0.3-5-4.1-5.1-7.1-6.7-3.6-1.9-7.8 0.8-11.4-1.4-4.2-1.1-3.3 2.9-4.7 4.6-0.4 0.8-0.8 1.6-1 2.5v0.2c-5.2-2.2-10.3-2.7-14.7 2.5 0 0.7 0 1.4-0.1 2.1-0.6 0.2-1.2 0.3-1.8 0.4-0.2 0.6-0.4 1.3-0.7 1.9-4 0.8-6.5-2.7-9.8-3.7 0-0.1-0.1-0.1-0.1-0.2-0.7-2.3-0.3-4 2.3-4.6 1.7-0.8 4.4-1.5 2.4-4-1.6-2-4-3.2-7-2.4-3.4 0.9-4.7 4.2-7.4 6-3.2-1.7-2.3-6.6-6.2-7.3-3.4-1.3-6.8-0.8-10.2-0.2-0.4-0.6-1-0.8-1.7-0.7-1.2 1.3-1.4 0.7-1.3-0.6-0.1-1.8-0.8-3.1-2.9-3.1 0 0.1-0.1 0.1-0.2 0.2 0.6-5.7 3.6-10.7 5.7-15.9-2.9-2.1-0.3-6.5-3.5-8.6-0.2-0.6-0.3-1.1-0.5-1.7 0.8-0.1 1.6-0.1 2.4-0.2 3.8-10-1.4-13.4-10.3-14.2-8.5 5.6-13.4-9.1-21.8-4-0.1-0.6-0.4-1.4-0.2-1.9 3.9-8.6-2.2-4.1-4.3-3-3.7 1.8-7.3 5.9-10-1 1.9-1.5 3.8-2.9 5.7-4.4 0.8-2.7 6.3-5.4 0-8.1-7.1 7.7-16.7 2.7-25.6 5.5 7.4-8.3 7.4-8.4-0.7-10.3-2.3-0.6-2.6-2.6-1.7-3.9 1.4-2.2 3.6-3.8 5.5-5.7 0.9-2.3 5.3-1.9 4.3-5.7-3.5-0.7-6.5-0.2-9.5 1.9-5.5 3.8-10.6 2.8-14.9-2.4-5.3-2.1-9.2-0.2-12.4 4.2-1.3 0.7-2.6 1.4-3.9 2-3.2-4.1 0.6-11.2-5.9-13.9-1.4-0.2-2.8-0.3-4.2-0.5-0.2-2.3-0.4-4.6 2-6 2.4-0.2 6.4 1.2 6.2-2.2-0.2-3.3-4-1.4-6.2-1.4l-0.2-0.7c-0.7 0.1-1.3 0.2-2 0.4-2.1 5.1-10.2 5.3-10.2 12.1-0.5 0.3-1.1 0.4-1.7 0.4-0.8-0.3-1.6-0.5-2.5-0.8-1.2 0.5-2.9 0.7-3.7 1.6-6.3 7.9-12.5 9.2-19 0.2-0.8-1.1-2.8-2-3.5-0.9-3.7 5.7-13.2 6.8-12.5 15.8-6.4 5.2-11.7 6.1-13.9-3.8 1.2-0.8 2.5-1.6 3.7-2.4 2-3.3 8.5-6 4-10.4-4.7-4.6-7.4 1.1-10 4.4-2 1.4-4 2.7-6.1 4.1-1.8-0.6-5.7 1.3-4.4-3 2.3-8.1-6-11.1-7.7-17.2-0.7 2-1.4 4-2.2 6-0.7 0.7-0.9 1.6-0.6 2.5l0.1 0.1c-1.1 1.2-2.2 2.5-3.3 3.7-5.5-1.7-8.8 5.4-14.3 3.7-3.4-7.9-12.8-10.5-16.2-18.5-0.1-0.6-0.2-1.1-0.3-1.7-2-1.4-4-2.7-6.1-4.1-6.7-3.1-8.9 0.7-10 6.4-0.7 0.7-1.4 1.4-2.2 2-2.8-0.3-6.2 0.2-5.9-4.4 5.9-3.1 5.9-9.5 3.1-12.7-3-3.5-2.5 4-5.4 4.5-0.5 2.4-0.7 5.2-4 2.1-1.8-1.7-1.2-7.2-6.1-4-1.8 2.7-0.6 4.8 0.7 6.8-0.9-1.6-3-2-4.8-2.8-0.8 0.1-1.7 0.2-2.5 0.3-4.6-0.1-9.2-0.2-13.7-0.4-0.9-1.7-2.4-2-4.1-2.1-2.9 2.6-7.7 3.2-8.1 8.2-0.1 0.6-0.2 1.1-0.2 1.7-1.6 0.1-3.1-0.1-4.1-1.6-2.1 0.3-5.6-1.1-5.2 2.7 1 8.7-3.3 4.6-6.7 3.1-0.2-0.5-0.5-1-0.7-1.5 1.2-3.9-1.1-6.1-3.8-8.3-4.8 2.6-3.7 8.1-6.1 11.9 0.1 0.6 0.1 1.2 0.1 1.9-1.8 0.9-3.5 2.1-4.1 4.2-1.4 0.8-2.7 1.6-4.1 2.4-1.3 0-2.7 0.1-4 0.1-0.6-1.6 1.3-4.6-1.9-4.5-1.7 0.1-1.7 2.4-1 4.2 0.5 1.2 0.4 2.6 0.6 3.9-1.9 0.8-3.8 1.6-5.7 2.3-0.6 0-1.2 0-1.8-0.1v-0.1c-2.2-1.4-5.4-1-6.5-4.1 0-0.6-0.1-1.3-0.1-1.9-7.6-4.2-10.1 6.2-16.4 5.8-6.1-2.5-9.7-10.8-18.1-7.9-2.1 0.2-3.7 6.9-6.4 0.5-1.6-3.8-5.1-2.3-7.9-2.6-0.7 0.6-1.3 1.4-1.6 2.3 0.5 3.8 0.4 7.2-4.5 7.7-0.7 0-1.4 0.1-2 0.1-0.7-0.1-1.3-0.2-2-0.4-0.7 0.1-1.4 0.2-2 0.3-0.8 0.5-1.9 0.9-2.4 1.7-2.9 4.4-0.5 15.1-11.8 9.4-1.6-0.8-1.9 2.1-1.7 3.7 0.5 3.9 1 7.7 1.5 11.6-6.3 2.4-12 6.2-19.5 1.2-4.4-2.9-11.4 5.1-10.1 10.8 0.8 3.5 3.3 6.7 1.1 10.4-4.9 0.5-6.4-4.7-10.2-6-0.6-0.7-1.3-1.4-1.9-2.2 0-0.6-0.1-1.3-0.1-1.9-11.6-4.1-14.3 6.9-20.4 12.1-5.6 6.3 1.1 7.6 4.2 10.3-3.4-0.1-6.7-0.1-10.1-0.2-1.9-3.2-0.8-12.7-8.3-3.9 0.1 0.6 0.2 1.2 0.4 1.9 1.9 0.7 3.8 1.5 5.7 2.2-1 3.5-6.8 4.7-6.5 5 4.8 7.7-7.1 8.1-6.1 14.6 0.4 2.6-2.5-0.1-3.6-1.3-1.4-0.6-2.7-1.2-4.1-1.9-1.8 5.4-8.1 13.1 5.6 10.4 2-0.4 2.4 2 2.7 3.7-0.1 0.6-0.1 1.3 0 1.9-3.2 6.9-10.2 1.5-14.6 4.4-0.6 0.1-1.2 0-1.8-0.2-0.7-1.3-1.5-2.6-2.2-3.8-5-4.4-7.5-2.8-8.1 3.4-0.7 0.8-1.4 1.5-2.1 2.3-2.3 7-13 10.1-9.1 20.1 0.5 1.2-2.8 2.4-5 2.4-0.5 0.8-1 1.5-1.5 2.3 0.1 3.3-2.9 5-4.1 7.7 2.3 0.4 4.6 1.1 6.9 1 2.8-0.1 6.8-2 7.8 1.3 1 3.2-2.4 5.8-5.1 7.8-1.3 0.7-2.7 1.4-4 2-0.7 0.8-1.4 1.5-2.1 2.3-2.4 2.8-4.9 1.3-7.4 0.4 0-0.6 0-1.1-0.1-1.7-2-2.3-4.2-2.3-6.5-0.5 0.5 1.9 1.1 3.9 1.6 5.8-1 1.2-2.1 1.2-3.5 0.7-9.5-2.9-13.4-0.8-17.5 9.3-1.4 4.1 0.7 7.5 2 11 0.2 1 0.4 2.1 0.6 3.2-1.3 2.1-2.5 4.3-3.8 6.4-4.3 2.1-8.5 0.6-12.8 0.2-0.3-0.9-0.7-1.6-1.4-2.3-2.3 1.3-4.6 3.6-7 3.8-8.4 0.6-17.6-1.6-22 9.2-0.5 1.2-5 0.9-7.6 1.3-0.2-4.1-3.1-4.1-6.1-4.1-0.4 5 1.3 6.8 6.1 4.1 1.2 8.5 10 10.4 14.2 16.3 0.9 1.6 2.4 2 4.1 2 2 2.7-2.9 5.4 0 8.1-0.7 1.4-1.4 2.7-2.1 4.1-0.8 2.1 0.1 3.7 1.4 5.1l-1.5 2.7c-0.7 1.9-2.3 2.2-4 2.3-1.1 0.4-4-2.3-3.2 1 0.7 2.7 3.3 4.9 5.1 7.3 0 1.9 0.1 3.9 0.1 5.8-2.1 1.3-4.2 2.7-6.2 4-4.7-0.7-9.8 2-14-1.8-0.7-0.1-1.3-0.1-2-0.2-1.6 0.9-3.1 2-2.2 4.2 0.7 0.7 1.5 1.4 2.2 2.1 2.6 1.5 7.4 0.6 6.2 6-0.1 0.4-0.1 0.9-0.1 1.3-2.7 3.7-5.9 7.3-1.8 12.7 1.1 0.2 2.3 0.4 3.4 0.6 0.1 1.2 0.3 2.3 0.4 3.5-3 1.1-8.1 0.2-6.1 6.3 0 2.1 0.1 4.2 0.1 6.2-0.7-0.2-1.3-0.3-2-0.5-2 0.1-4.1 0.1-6.1 0.2-3.4-2.8-6.9-3-10.3 0-0.9 0.4-1.2 0.8-1.1 1.3-3 0.6-6.3-1.2-9.1 0.8-4.8 2-9.1-0.6-13.7-1.4-3.8-0.7-7.7 0.5-10 3.5-1.4 1.9-1.8 6.5 1 7.2 8.6 2 5.7 10 5.8 13.9 0.1 4.7 2.3 5.5 4.7 7.4 1 2.7-0.3 5.9 1.9 8.3 0.7 0.7 1.4 1.5 2.1 2.2v-0.4c2.1 3.3 4.5 6.3 2.4 10.9-3.7 8.1-10.4 1.9-15.5 3.2 1.2 5.6 8.6 9.2 5.7 14.2-7.1 12.5-6.4 18.1 5.3 24.7 3.9 0.6 8.6-3.4 11.8 1.6-2.3 5.5-3.3 11.9-9.8 14.7-0.6 2.1-1.2 4.3-1.8 6.4-0.8 1.2-1.7 2.4-2.5 3.6 13.5 9.4 11.2 28.1 22.7 38.8-1.6 5.3-1.5 8.7 5.8 6.6 3.8-1.1 9.4-0.8 8.7 4.2-0.8 6 4.1 5 5.9 7.5v1.3c-0.8 0.1-1.5 0.3-2.1 0.8-3.1 8.7 3.8 16.4 2.8 24.8-0.8 6.4-2.1 13.3 0 19 1.9 5.4 8.9 7.4 15 9.3-2.6 2.9-5.8 4.3-5.4 7.9 8.9 5.3 18.5 9.2 28.4 12.3-3.5 4.3-4.2 6.7 2.8 8.6 7.5 2 17.3 1.8 19.9 12.4 0 0.1 2.4-0.3 3.7-0.5 1.9 7.9 16.1 5.8 13.1 17 2.9 0.4 3.3-2.4 4.6-2.5 5.3-0.5 12.7-5.6 15.3 1.4 2.2 6 5.6 9.4 10.2 12.7 2 1.4 1.3 2.7-0.1 4 0 0.6-0.1 1.2-0.1 1.9 2.4 6.6 7.6 1.9 11.4 2.9-1.9 2.8-3.7 5.9-2 8.8 2.8 4.7 7.2-0.7 10.9 0.5 1.8 1.2 3.6 2.7 6 1.9 5.6 6.3-5 4.7-4.5 8.4 2 2.2 4.4 1.8 6.6 2-1.8 4.7-5.3 2-8.2 1.9 0.4 7.5-9.1 17.3 5 21.7 0.2 0.1 0.2 0.6 0.3 0.9 3.7 11.4 3.8 11.5 15.1 7.9 2.2-4-0.8-5-3.5-6-0.7-0.2-1.4-0.4-2-0.6 3.8-3.1 7.6-1.6 11.4-1.4-2.9 1.9-4.3 4.3-1.9 8 1 8-4.7 18.4 8.2 22.1 1.4 0.4-0.1 2.2-1.1 3-2 1.6-4 4.3-1.2 5.6 6.3 2.7 6.3 9.4 9.8 13.8 5.1 6.5 8.4 6.8 12.9 0.3 3.5 1.5 6.1 5.2 5.3 7.8-2.3 7.2 4 6.8 6.8 7.8 3.9 1.4 9.2-1.1 9.5-5 0.6-6.7 5.5-5.1 8.9-6.5 2.4-1.4 3.4 0.8 5.1 1.7 9.2 4.9 18.2 11.3 29.5 6.5 0.9-1.6 2.4-2 4-2.1 5.3-1.1 9.2-3.9 11.6-8.6 0.2 0.2 0.4 0.3 0.5 0.5 0.9 2.3-1.4 6.4 2.1 6.9 5.7 0.8 2-7.1 6.5-8.3 1.7 2.4-0.5 6.5 3.7 7.4-0.7 6.6 3.9 12.3 2.3 19.7 6.2-2.7 10.6-8.7 17-3.8-0.7 3.5-6.4 1.7-5.7 6.8 7.8 0.8 17.3-3.5 23.1 5.7 7.7 6.1 9.4-0.9 12.2-5.5-0.2-0.2-0.5-0.4-0.7-0.7 0.2-0.2 0.3-0.3 0.5-0.4 0.1 0.4 0.1 0.7 0.2 1.1 4.2-4.5 6.9-0.1 10.1 1.6 0.7 0.7 1.3 1.4 2 2.1 3.1 1.8 5.5 7.1 9.6 4.2 2.9-2.1 7.2-5.2 4.7-10.4 2.9-0.1 5.7-0.1 8.6-0.4 4.8-0.4 3.4 1.3 2.3 2.8-0.1-0.1-0.2-0.1-0.3-0.2-9.6-3.2-8.3 2.4-6.7 8.2 4.6 2 9.9 1.7 14.5 3.8 1.9 1.6 2.3 5.4 6.1 4.1 0.7-0.7 1.4-1.3 2-2 2.4-1.6 5.2-2.8 7.3-4.8 6.9-6.6 10.5-6.5 12.4 2.4 1.4 6.9 4.7 5.5 8.9 4.5 0.7-0.7 0.9-1.6 0.6-2.5l7.5-5.7c4.5-1.4 4.5-8.6 10.4-8.2 1.3 0 2.6 0 3.9 0.1 7.6 0.6 11.4-7.3 18.4-8.1 1.2-2.6 3.1-4.1 6.1-4.1 3.2-2.4 6.5-7.1 9.4-6.8 11.8 1.1 2.2-5 2.9-7.4-4.8 5.3-9.5-3.8-14.3 0v-2c1.1-2.5 3.1-3.7 5.8-3.9 1.3 1.5 2.7 4.1 4.7 3.2 9.1-4 20 0.2 28.2-5.9 3.5-2.6 8.9 1.3 8.9-1 0-9.2 6.7-5.6 10.5-5.9 2.7-0.2 5.4 1 6.6-2.3 1.2-3.1 0.5-6.1-2.5-8-3.5-2.2-7-4.1-7.2-8.9 2.7-1.4 5.4-2.7 8.1-4.1 4.3-1.5 7 3.6 11.1 3.3 0.2-4.9 1.1-3.6 3.5-5.3 6.2-4.4 15.7-0.2 20.1-8.3h1.8c4.1 0.4 8.5-0.6 12.1 2.4 2.6 5.6 6.8 2.1 10.4 1.8 6.3 5.5 12.3 7 17.5-1.4 0.7-1.1-0.3 0.2 0.8-0.6 0.1-3.9-5.9-5.9-4.9-10.1 5.6 6.6 11.4 2.8 17.1-0.1 0.6-0.1 1.3-0.1 1.9-0.1 0.2-1.6 0.5-3.2 2.2-4 3.5-1.3 6.5-2.9 2.5-6.9-1.4-1.5-3.1-2.6-4.9-3.6 2.6-0.9 4.7-2.2 4.4-5.9 0.6-0.7 1.3-1.4 1.9-2.2 2.1 2 4.3 4 6.4 6 2.4-0.6 4.6 3.3 6.5 1 2-4.9-9.7-8.6-2.3-9.8 8.2-1.3 15.1-13.7 25.4-2.9-1.3-4.6-4-7-3.4-10.5-4.3-2.9-2.3-6.5-1.6-10 0.1 0.1 0.3 0.2 0.5 0.1 0 2.9-0.3 5.9 0.3 8.8 0.3 0.3 0.6 0.7 0.8 1 3.5-0.8 5.6-7 10.4-2.4 4.7 4.1 8.8 3.6 12.2-1.7v-1.9c1.9-5.2 6.7-2.9 10.2-4.1 2.8-0.3 6 0.9 8.1-2.1 5.4-3.4 10.9-6.8 16.3-10.2 2.1-3.2 4.3-5.9 8.2-2.1-0.7 1.2-1.5 2.4-2.2 3.6 2.5 1.1 4.2-0.9 6.2-1.5 0.7 0 1.3 0.1 2 0 3.4 3.2 5.4 2.4 6.1-2.1 3.2-6.9 1-16.4 7.9-21.1 3.9-2.7 6.3-4.1 6.8-9.4 0.5-6-5.5-5.3-6.9-9.5 4.4 2.8 10-0.3 14.1 4.3 1.9 2.1 5.8-0.7 4.1-2.6-5.1-5.6 1.1-9.8 0.6-14.6-4.4-1.2-9.4-1.7-9.9-7.9-0.1-0.2-0.4-0.3-0.6-0.5h0.1l0.5 0.5c8.1-0.8 16.1-1.5 24.2-2.3 1.7 0 3.2-0.4 4.1-2 2.8-1.9 6.7-2.5 8.1-6.2 0.6-0.5 1.1-1.1 1.7-1.6 0.1 0.1 0.1 0.2 0.2 0.3 1.5 0.6 2.9 0.4 4.2-0.7 1.4-0.7 2.7-1.4 4.1-2 5.9-3.2 12.6-4.5 18.3-8.2 0.9-1.6 2.4-2 4.1-2 5.6-4.7 3.6-16 14.3-16.3 4.9-6.1-2.3-10.7-2-16.3-0.7 0-1.4 0.1-2.1 0.1-0.6 0-1.3-0.1-1.9-0.1-2.2-2.1-9.9-2.8-1.8-7.4 2.2-0.7 4.2-1.7 5.3-4 0.8-3.6 3.8-5.9 5.4-9-0.3-3.5-1.7-6.2-4.8-8-1.2 0-2.4 0-3.5-0.1-4.2-6.2-9-11.4-16-14.7-2.2-1-5.5-3.4-2.4-7.1 7.9 0.9 8.5 0.5 7.6-4.5-2-3.8 0-6.2 2.5-8.9 2.5-2.6 2.1-5.4-0.4-8.1-1.6-1.8-6.2-1.8-4.5-5.5 1.5-3.4 5.4-1.8 8.3-2.3 2.5-4.7-0.2-5.6-4.1-5.6-2.5-0.8-5.1-1.7-7.6-2.5 2.7-8.5 8.6-5.2 13.9-3.8 5.2 3.1 9.3 2.3 8.8-4.3-0.3-3.9 2.8-5.1 3.5-7.9 0.4-2.4-1.1-4-2.4-5.8-0.4-0.7-1-1.1-1.7-1.5-0.1-1.8 0.1-3.5 1.6-4.8 0.5 0.3 1 0.7 1.6 0.8 5.4-0.6 3.3-2.9 1.2-5.2-0.1-0.6-0.2-1.2-0.2-1.9-1.9-0.2-3.8-0.4-5.7-0.5-1.4-2.3-7.6-1.7-4.3-6.9 2-0.2 3.9-0.5 5.9-0.7 6.7 6.4 10.2-5.6 16.4-3.1 0.3 0.1 0-5.6-1.4-5.8-13.9-2.1-3.8-14.9-10.3-20.4 3.8 0.5 6.1 5.2 9.5 0.9-4.3-3.1-5.9-9.7-14.1-10.3 10.4 4.6 8.9-5.9 13.9-7.9zM563.1 870c0 0.2 0 0.4-0.1 0.6-0.1-0.1-0.2-0.1-0.3-0.2 0.2-0.1 0.3-0.2 0.4-0.4z m10.4-712.2c0.2 0.1 0.3 0.1 0.4 0.1v0.2c-0.1-0.1-0.2-0.2-0.4-0.3l-0.1 0.2c0-0.1 0-0.1 0.1-0.2zM563 870.7c-0.8 1-2.3 2.8-2.4 2.7 1-0.9 1.9-1.8 2.4-2.7z m134.5-692.2l-0.9 2.1c-2.1 1.9-4.1 4.1-7.3 4.2-0.6 1.4-0.5 2.7-0.1 4-1.7-1-3.4-1.9-3.8-4.3 0.6-0.1 1.2-0.1 1.8-0.2 0.1-2 0.3-3.9 0.4-5.9h1.8c1.8-1.1 2.9-3.4 5-3.9 0.2 0.2 0.4 0.5 0.6 0.7-0.9 2.2 7.9-2 2.5 3.3z m60.6 58.9c-2.7-0.8-4.3 0.7-5.8 2.3 1.2-1.9 2.3-3.8 4.6-4.7 0.5-0.2 1.2-1.7 1.6-0.3 0.1 0.6-0.6 1.7-0.4 2.7z m55.6 25c0.2 0.3 0.3 0.5 0.5 0.8 2.7 2.3 4.8 1.1 6.8-0.7-0.4 1.4-0.2 2.6 0.7 3.7-0.2 0.3-0.1 0.5 0.1 0.8-2.7 0-4.1 1.5-4.8 4 0 0.3 0.1 0.6 0.2 1h-1.6c-0.3-0.4-0.5-0.9-0.5-1.5 0-2.8-3.9-5-1.7-8.1h0.3zM685.4 789.6c-0.4-0.5-0.7-1-1.1-1.5 0.7 0.3 1.2 0.4 1.9 0.6-0.1 0.1-0.3 0.1-0.4 0.3-0.2 0.2-0.3 0.3-0.4 0.6z m-250.2 80.7c0.1-0.1 0.1-0.1 0 0 0.1-0.1 0 0 0 0zM915.7 637c-9.3 3.8-18.1 5.1-25.1-5.1 0.1-0.5 0.2-1.1 0.3-1.6 4.1-1.1 7.3 2.8 11.3 2.4 0.9-3.7-4.9-4.4-3.6-8 0.1 0.1 0.1 0.3 0.2 0.4 2.2 1.7 4.4 2.9 7 1.9v0.1c0.6 6.3 5.3 8.1 9.9 9.9zM750.5 748.4c-0.1 0 0 0 0 0-0.1 0-0.1 0 0 0-0.1 0-0.1 0 0 0v-0.2c0.1 0.1 0.1 0.2 0.2 0.2-0.1 0-0.2 0.1-0.2 0 0 0.1 0 0.1 0 0 0 0.1 0 0.1 0 0 0 0.1 0 0.1 0 0zM124.6 478c0.1 0.5 0.2 1 0.2 1.4-0.3-0.2-0.6-0.2-0.9-0.4 0.2-0.3 0.4-0.7 0.7-1zM391 830.8c0.4 0.4 0.8 0.7 1.2 1.1-0.6-0.3-1-0.7-1.2-1.1z m296.3-634.1c0-0.1 0-0.1 0 0 0-0.1 0.1-0.1 0 0 0.1 0 0 0 0 0z m37 24.2c0 0.1-0.1 0.2-0.1 0.3l-0.2-0.2h0.1l0.2-0.1zM466.2 839.2c0.1 0.1 0.2 0.1 0.2 0.2 0-0.1-0.1-0.1-0.2-0.2zM302.9 814s0 0.1-0.1 0.1c0-0.1-0.1-0.1-0.1-0.2 0.1 0.1 0.2 0.1 0.2 0.1zM589 216.2c-0.6-1-1.1-2-1.5-3.2 0 0 0-0.1 0.1-0.1 1.2 1.2 1.5 2.3 1.4 3.3z m257 181.5c0 0.2 0.2 0.1 0.3 0.3-0.1 0.1-0.1 0.2-0.2 0.3v0.3c-0.2-0.2-0.3-0.5-0.1-0.9zM689.4 701.6c0-0.1 0-0.3 0.2-0.5 0 0.2 0.1 0.3 0.1 0.4-0.1 0.1-0.2 0.1-0.3 0.1zM642.3 545c0.2-0.2 0.3-0.5 0.4-0.8l0.1 0.1c-0.1 0.2-0.3 0.5-0.5 0.7z m-5.7 34.9c-0.1-0.1-0.2-0.3-0.3-0.4 0.1 0.1 0.3 0.1 0.4 0.2 0 0 0 0.1-0.1 0.2z m-140.2 65.4c0.2 1 0.4 2 0.8 3.1-0.7-0.8-0.9-1.9-0.8-3.1z m34.4-39.2s-0.2-0.1-0.2-0.2c0.1 0 0.1 0.2 0.2 0.2z m199.3-236.5l0.2 0.2h-0.1c0-0.1-0.1-0.1-0.1-0.2z m0.3 0.4c0.1 0.1 0.2 0.1 0.2 0.2 0-0.1-0.1-0.1-0.2-0.2zM680 266.2s0-0.1 0 0c0.7 0.1 1.3 0.3 1.6 0.8-0.5-0.4-1.1-0.7-1.6-0.8z m-0.1 17.1c0.1 0.2 0.3 0.3 0.4 0.4-0.6 0.5-1.3 1.2-2.1 2.4 0.2-0.4 0.7-1.1 1.7-2.8zM567.8 579.7z m24.8-70.9c0.1-0.1 0.1-0.3 0.2-0.4 0.1 0.1 0.1 0.2 0.2 0.3-0.1 0.1-0.2 0.1-0.4 0.1z m-33.6-115c-0.1-0.1-0.3-0.2-0.4-0.3 0-0.2 0.1-0.3 0.1-0.5 0.1 0.3 0.2 0.5 0.3 0.8z m81.5 104.3c0-0.1 0-0.1 0 0 0-0.1-0.1-0.1-0.1-0.1 0.1 0 0.1-0.1 0.2-0.1 0 0-0.1 0-0.1 0.2 0.1-0.1 0.1-0.1 0.2-0.1 0 0-0.1 0-0.2 0.1zM705.7 268h-0.1l0.1-0.1v0.1z m7.2 15.8c0.1-0.4 0.4-0.7 1.1-0.7-0.3 0.2-0.7 0.4-1.1 0.7zM553 375.5v-0.2c0.1 0.1 0.1 0.2 0.2 0.3-0.1 0-0.2 0-0.2-0.1z m-8.2 2.4z m-11.7 3.6c-0.1-0.3-0.2-0.4-0.4-0.7 0.2 0.1 0.5 0.2 0.7 0.3 0 0.2-0.1 0.3-0.3 0.4z m-59.5 354.7c0-0.1 0.1-0.1 0.1-0.1-0.5 1.1-0.8 2.1-1 3-0.1-0.9 0.1-1.8 0.9-2.9z m0.5-0.5l0.2 0.2c-0.2 0.1-0.4 0.1-0.6 0.2 0.1-0.2 0.3-0.3 0.4-0.4z m229-256.2v-0.1c0 0.1 0.1 0.1 0.1 0.1 0 0.1-0.1 0-0.1 0z m-283.4 294c0.6 0.1 1.1 0.2 1.6 0.3-0.6 0.1-1.2 0.1-1.6-0.3zM772.8 628c0 0.1 0.1 0.2 0.1 0.3l-0.1-0.1v-0.2z m6.9-181.9c0.3 0.2 0.6 0.4 0.9 0.5-0.8 0.3-1.5 0.7-2.3 1 0.5-0.5 1-1 1.4-1.5z m38 50c-0.2-0.2-0.5-0.4-0.6-0.7l0.6 0.6v0.1c-0.1-0.1 0-0.1 0 0zM300.8 376.4c0 0.3 0.1 0.6 0 1-0.4 0.1-0.8 0.2-1.2 0.2l1.2-1.2zM215.7 471c0.7-1.6 1.7-2.6 3.4-2.7-1.2 0.8-2.3 1.7-3.4 2.7z m70.5 134.9l0.1-0.1c0 0.1-0.1 0.1-0.1 0.1z m53 120.1c-0.1 0 0 0 0 0z m-17.8-354.3c-0.1-0.1-0.1-0.3-0.1-0.4 0.1 0.1 0.3 0.2 0.4 0.2-0.1 0.1-0.2 0.2-0.3 0.2z m-16.7-4c0-0.1 0-0.1 0 0 0-0.1 0 0 0 0z m-27.2 69.1c-0.2 0-0.3-0.1-0.5-0.1v-0.2c0.1 0.1 0.3 0.2 0.5 0.3z m-88.9-30.4z m142.1-34.2c0.4 0.1 0.7 0.6 1.1 1.4-0.4-0.5-0.8-1-1.1-1.4z m-142.1 34.2z m0 0z m331.5 422.9c0.1 0 0.2-0.1 0.3-0.1v0.1h-0.3z m252.8-200.9c0.2 0.2 0.3 0.2 0.5 0.3-0.1 0-0.1 0.1-0.1 0.1-0.1-0.2-0.2-0.3-0.4-0.4z m36.9-242.9c-0.1 0.1-0.1 0.2-0.2 0.3l-0.1-0.1c0.1-0.2 0.1-0.3 0.3-0.2zM190 381.7c-0.2-0.2-0.4-0.4-0.5-0.7v-0.2c0.2 0.4 0.4 0.6 0.5 0.9z m274 428.9c-0.2 0.2-0.7 0-1.1-0.3 0.4 0.1 0.7 0.2 1.1 0.3z m135.4-51.1c-0.2 0.1-0.3 0.2-0.5 0.3 0.2-0.2 0.3-0.3 0.5-0.3z m59.9-14.2c-0.1-0.1 0-0.2-0.1-0.4l0.1-0.1c0.1 0.1 0.2 0.1 0.3 0.2l-0.3 0.3z m68.6-51.7l-0.1 0.1v-0.1h0.1zM331 247.5c0 0.1 0 0.1 0 0 0.1 0.1 0.1 0.1 0 0.1 0 0-0.1-0.1 0-0.1-0.1 0 0 0 0 0z m-65.4 467.4c0 0.2-0.1 0.4-0.1 0.6 0-0.2 0.1-0.4 0.1-0.6z m195.6 94.6h0.1v0.2c0-0.1-0.1-0.2-0.1-0.2z m28.9 23c0.1 0.1 0.3 0.1 0.4 0.2-0.2 0-0.3 0.1-0.4 0.1-0.1 0 0-0.1 0-0.3z m101.7-47c0.7 0 1.5 0.1 2.4 0.5 0.1 0.3 0.1 0.6 0.1 0.8-1-0.6-1.8-1-2.5-1.3z m217.3-182.2c0.3 0.1 0.5 0.2 0.8 0.2-0.3 0.1-0.6 0.2-0.9 0.4 0-0.1 0.1-0.2 0.1-0.4 0 0-0.1-0.1 0-0.2z m32.9 53.2v0.2c-0.1 0-0.2-0.1-0.2-0.1 0.1 0 0.2 0 0.2-0.1z m42.3-234.2c0-0.2 0.1-0.3 0.1-0.5 0.2 0.1 0.4 0.3 0.7 0.3-0.2 0.1-0.5 0.1-0.8 0.2z m-54.4-46.4s-0.1 0 0 0v0.2c-0.1 0-0.2 0-0.3-0.1 0.1 0 0.1-0.1 0.3-0.1-0.1 0-0.1 0 0 0 0-0.1 0 0 0 0zM508.3 178.2c-0.2-0.3-0.5-0.5-0.7-0.7 0.3 0.1 0.6 0.3 0.7 0.7zM290.1 258zM313 762.1l-0.3 0.6c-0.3-0.2-0.5-0.3-0.8-0.5 0.4-0.1 0.7-0.2 1.1-0.1z m144.3 8.7v-0.3c0.1 0 0.1 0.1 0.2 0.2-0.1 0-0.1 0.1-0.2 0.1z m287.3-506.9h-0.2l-0.1-0.1s0.1 0 0.1-0.1c0.1 0.1 0.2 0.1 0.2 0.2z m-16.3-43z m-234.5-28.7l0.6 0.6c-0.7-0.3-1.4-0.4-2.3-0.3 0 0.1 0 0.2-0.1 0.3l-0.1-0.1c0.1 0 0.1-0.1 0.2-0.1 0.7-0.5 1.2-0.5 1.7-0.4zM339.2 219c-0.1 0-0.1 0-0.1-0.1 0 0 0.1 0 0.1 0.1zM311 242.1c-0.1 0.3-0.1 0.5-0.2 0.8-0.1-0.3-0.2-0.5-0.3-0.8h0.5zM148 450.5c0.1 0.2 0.2 0.4 0.3 0.5h-0.6c0.1-0.2 0.2-0.4 0.3-0.5z m15.9 216.8c-0.1 0-0.1 0 0 0-0.1 0 0 0 0 0z m77.9 57.4c-0.1-0.2-0.2-0.4-0.3-0.7h0.5c0 0.3-0.2 0.5-0.2 0.7z m46.5 46.1s0 0.1 0 0c-0.1 0.1-0.1 0.1-0.2 0.1 0-0.1 0.1-0.1 0.1-0.2 0.1 0 0.1 0.1 0.1 0.1z m244.2 91.8h0.2c0 0.2-0.1 0.3-0.2 0.5v-0.5z m168.7-95.8c0 0.2-0.1 0.2-0.1 0.4l-0.6-0.3c0.2 0 0.5 0 0.7-0.1z m189.9-351.5c0.1 0 0.1 0.1 0 0 0 0.1 0 0 0 0z m-26.9-37.6c0.1-0.1 0.2-0.2 0.3-0.4 0.1 0.1 0.2 0.2 0.3 0.2-0.2 0.1-0.4 0.1-0.6 0.2z m-136-157c0 0.1 0 0.1 0.1 0.2h-0.2c0-0.1 0-0.1 0.1-0.2z m-558 145z m-64.8 165s-0.1 0.1 0 0c-0.1 0-0.2 0-0.2-0.1v-0.1c0 0.1 0.1 0.2 0.2 0.2z m17.5 50.9c0.2 0.3 0.3 0.7 0.6 1-0.3-0.1-0.5-0.2-0.8-0.3 0.1-0.2 0.1-0.5 0.2-0.7z m71.8 113.9l-0.2 0.2c0-0.1-0.1-0.1-0.1-0.2h0.3z m295.4 167.3s-0.1 0 0 0c-0.1 0-0.1 0 0 0z m101.6-48.9v-0.2c0.2 0.1 0.3 0.1 0.4 0.2-0.1-0.1-0.3-0.1-0.4 0z m260.1-158.6c0-0.1 0-0.1 0 0 0.1-0.1 0.1-0.2 0.2-0.2-0.1 0-0.1 0.1-0.2 0.2z m41.2-77.9z m5.9-106c0.1-0.1 0.2-0.1 0.2-0.2 0 0.1 0.1 0.1 0.1 0.2h-0.3z m10.5-28.5z m-159-187v-0.1h0.1c0.1 0 0.1 0.1 0.2 0.1-0.1-0.1-0.2 0-0.3 0z m-209.7-71.6c0 0.1 0.1 0.1 0.1 0.2-0.1-0.1-0.2-0.1-0.3-0.2h0.2z m-46.4-26h-0.2s0-0.1 0.1-0.1c0 0 0.1 0 0.1 0.1z m-335 212.9c-0.3 0.1-0.5 0.4-0.7 0.6-0.3-0.6-0.6-1.2-0.7-1.9 0.4 0.5 0.9 0.9 1.4 1.3z m-46 114.7c-0.1 0-0.1 0.1-0.2 0.1 0-0.1 0-0.1 0.1-0.2 0-0.1-0.1-0.2-0.1-0.3 0.1 0 0.1 0.1 0.2 0.1l-0.1 0.1 0.1 0.2z m6.6 101.7v0.1c-0.1 0 0-0.1 0-0.1-0.1 0 0 0 0 0z m64.5 103.9c0.1 0 0.1 0 0 0v0z m159 138.4v0.1c-0.1-0.1-0.1-0.1 0-0.1-0.1 0-0.1 0 0 0z m211.5 36.4s0 0.1 0 0c0 0.1-0.1 0.1 0 0-0.1 0.1-0.1 0 0 0z m189.7-138.2c0 0.1-0.1 0.1-0.1 0.2 0-0.1-0.1-0.1-0.1-0.2-0.1 0.1-0.1 0.2-0.2 0.4 0-0.2 0-0.3 0.1-0.5l0.1 0.1h0.2z m166.3-201.3v-0.1c0.1-0.1 0.2-0.1 0.3-0.2v0.1c-0.1 0.1-0.3 0.2-0.3 0.2z m-89.5-244.3s-0.1 0 0 0c-0.1-0.1-0.1-0.1 0 0 0-0.1 0-0.1 0.1-0.1-0.1 0-0.1 0-0.1 0.1z m-30.3-12.4z m-99.5-77.7l-0.3 0.6s-0.1 0-0.1-0.1c0 0.1 0.4-0.5 0.4-0.5zM176.3 361.6s0.1 0 0 0c0.1 0 0 0 0 0z m-50.7 104.1l-0.1-0.1c0.1 0 0.1 0 0.1 0.1z m-26.3 30.2h-0.6c0.1-0.3 0.3-0.6 0.5-0.9 0 0.3 0.1 0.6 0.1 0.9z m9.9 65.3s0 0.1 0 0c-0.1 0.1-0.1 0-0.1 0s0-0.1 0.1 0z m335.9 297.2c-0.1 0-0.1 0 0 0-0.1 0-0.1 0 0 0z m109.8 8s0-0.1 0 0c0-0.1 0-0.1 0 0 0-0.1 0-0.1 0 0 0-0.1 0-0.1 0 0v-0.1c0.1 0 0.2 0.1 0.3 0.2-0.2-0.1-0.3-0.1-0.3-0.1zM893 648.5v0.1c-0.2-0.1-0.3-0.1-0.3-0.1 0-0.1 0.1-0.1 0.1-0.2 0 0.1 0.1 0.1 0.2 0.2z m27.4-149.9c0-0.9 0.1-1.8 0.3-2.6 0.5 1 1 1.9 1.7 2.7-0.7-0.2-1.3-0.2-2-0.1z m-92.3-159.5c-0.1 0-0.1 0 0 0 0-0.1 0-0.2 0.1-0.3 0.1 0.1 0.1 0.2 0.2 0.3h-0.3z m-16.6-56.9c-0.2 0.1-0.4 0-0.5 0 0.2-0.1 0.3-0.1 0.5-0.2v0.2z m-29.2-7.5c0-0.1 0-0.1 0 0 0-0.1 0.1-0.1 0.1-0.1l-0.1 0.1z m-9.3-4.9z m-108.1-93.4v-0.4l0.3 0.3c-0.1 0-0.2 0-0.3 0.1z m-26 4.4c-0.1 0-0.1 0 0 0-0.1 0-0.1 0 0 0h-0.1c0-0.1 0-0.1 0.1 0 0-0.1 0 0 0 0z m-61.7-12.4h-0.2l0.2-0.2h0.1c0 0.1-0.1 0.2-0.1 0.2z m-38.5-8.3z m-35.1-5.8c-0.1 0-0.1-0.1 0 0 0.1-0.2 0.2-0.2 0.4-0.3-0.2 0.1-0.4 0.3-0.4 0.3z m-182.7 52.3c0 0.5 0.2 0.9 0.3 1.3-0.6-0.2-1.3-0.1-2 0.2l0.3-0.6-0.6-0.6c0.2-0.1 0.5-0.2 0.7-0.5 0.8-1.2 0.6-2.5 0.8-3.8 0.3 1.4 0.4 2.7 0.5 4z m-75.8 544.3c0.1 0 0.1 0 0.2-0.1v0.2c-0.1 0-0.1-0.1-0.2-0.1z m43 68.3c0.1 0 0.2-0.1 0.2-0.1v0.3c-0.1 0-0.1 0.1-0.2 0.1v-0.3z m0 24.9c0 0.1 0.1 0.1 0.1 0.2h-0.2c0.1 0 0.1-0.1 0.1-0.2z m18.4-6.6c-0.1 0.3 0 0.6-0.1 0.9-0.2-0.2-0.4-0.3-0.6-0.4 0.3-0.2 0.5-0.4 0.7-0.5z m140.9 27c-0.1-0.1-0.1-0.2-0.1-0.3h0.2c-0.1 0.1-0.1 0.2-0.1 0.3z m182.8-47v0.3h-0.3l0.3-0.3z m272.1-245.3c-0.2-0.1-0.3-0.3-0.4-0.4 0.2 0 0.3 0 0.5 0.1 0 0.1 0 0.2-0.1 0.3z m17.9-141c-2.8 0.8-5 2.1-5.2 5.7-0.5 0.1-0.9 0.2-1.4 0.4-13.4-3.8-1.6-8.3-0.4-12.4h0.1c0.7 0.3 1.4 0.5 2.1 0.4 0.1-0.1 0.2-0.1 0.2-0.2 2.2 1.5 3.2 3.9 4.6 6.1zM734.5 204.7c0-0.2-0.1-0.5-0.1-0.7l0.6 0.6c-0.2 0-0.4 0-0.5 0.1z m-136.4-34.1c-0.2-0.1-0.3-0.1-0.5-0.3 0.3 0 0.6 0 0.9-0.1-0.1 0.2-0.3 0.3-0.4 0.4zM546.7 160c0-0.3-0.2-0.6-0.3-0.9 0.4 0.2 0.8 0.5 1.1 0.7-0.2 0.1-0.5 0.2-0.8 0.2z m-30.3-8.1h0.2c0 0.1-0.1 0.1-0.2 0.1 0.1 0 0.1 0 0-0.1z m-176.8 28.8c0 0.1-0.1 0.1-0.1 0.2 0-0.1-0.1-0.1-0.1-0.2h0.2z m-14.6 12c0-0.1 0-0.1 0 0 0-0.1 0-0.1 0 0 0-0.1-0.1-0.1-0.1-0.1v-0.1-0.1c0 0.1 0.1 0.1 0.1 0.3 0-0.1 0 0 0 0zM182.8 333.2l-0.3 0.3c-0.1-0.1-0.2-0.1-0.3-0.2 0.1-0.1 0.2-0.1 0.3-0.2 0.1 0 0.2 0.1 0.3 0.1z m3.7 376.5c0.1 0 0.1 0 0 0 0.1 0 0.1 0 0 0 0 0 0.1 0 0 0z m59.2 44.8c0.1-0.1 0.3-0.2 0.3-0.2-0.1 0-0.2 0.1-0.3 0.2z m13.3 28.9c-0.2-0.8-0.6-1.6-1.5-2.3 1.3 0.2 1.5 1.2 1.5 2.3z m6.8 11.2h-0.1c0.1-0.2 0.2-0.5 0.3-0.7 0.1 0.2 0.1 0.5 0 0.7h-0.2z m254.5 92.3v-0.1c0.1 0 0.1 0 0 0.1 0.1-0.1 0.1 0 0 0 0.1 0 0.1 0 0 0z m287-627.4c-0.1 0.2-0.1 0.4-0.2 0.6-0.1-0.1-0.3-0.2-0.4-0.3 0.2-0.1 0.4-0.1 0.6-0.3z m-29.7-12.7c-0.6 2-2.5 2.9-4.3 3.9-0.2 0.2-0.3 0.4-0.4 0.6v-0.2c1.4-1.6 3.1-3 4.7-4.3zM499.8 129.9l0.3 0.6c-0.3 0.2-0.7 0.4-1 0.5 0.2-1 0.2-1.8 0-2.4 0.2 0.5 0.4 0.9 0.7 1.3zM258.2 787.3c0.3-0.6 0.5-1.1 0.7-1.7 0 0.5 0.1 1 0.3 1.4-0.3 0.2-0.7 0.4-1.1 0.5-0.7 3.3-3.3 6.1-2.5 9.7-1.4-3.5-2.3-6.9 2.6-9.9z m302.9 73.1c0.3-0.7 0.7-1.3 1.1-1.9 0 0.6-0.1 1.3-0.1 1.9h-1z" p-id="5163"></path></svg>
