<?xml version="1.0" standalone="no"?><!DOCTYPE svg PUBLIC "-//W3C//DTD SVG 1.1//EN" "http://www.w3.org/Graphics/SVG/1.1/DTD/svg11.dtd"><svg t="1643957881771" class="icon" viewBox="0 0 1024 1024" version="1.1" xmlns="http://www.w3.org/2000/svg" p-id="5313" xmlns:xlink="http://www.w3.org/1999/xlink" width="300" height="300"><defs><style type="text/css"></style></defs><path fill="#F6C5B8" d="M211.5 689c1 11.1-5.2 19.7-13.5 30 10.2 1.1 17.3 2.4 24.4 2.5 7.6 0.1 8.6-9.4 5.4-9.5-17.6-0.5-7.6-18.3-16.1-23.5v-0.2-0.2c2.7 0 3.5-0.9 3.7-2.1-1.3 0.6-2.6 1.2-3.9 2.1-0.1 0.6-0.1 0.6 0 0.9z" p-id="5314"></path><path  fill="#F6C5B8" d="M946 450.7c-2.6-29.2-24.6-47.6-31.7-73.7-3.6-13.2-16.6-24.2-18.7-37.2-5.3-33.2-33.5-47.7-53.4-67.8-14.2-14.3-22.9-23.8-10.2-42.2 1.8-2.6 6.1-8.7 3.2-9.1-20.2-2.6-19.2-24.8-32.7-33.8-12-8.1-18-21.3-15.9-40.5-6.5 17.5-16.7 4.5-25 7-2-7.3-7.1-7.6-14.1-4.3 4.9 2.2 9.9 4.5 14.8 6.7 1.9 5.1 14.8 6.8 6.3 14.4-5.3 4.7-12.9 12.1-21.6 6.8-29.6-18.2-65.2-22.5-94.7-41.1-7.8-4.9-14.8-5.4-25.4 0.9-12.2 7.3-30 6-42.6-6.3-4.3-4.2-9.8-10.3-14.8-7.6-21.9 12.3-16.7-3.9-16.7-15 4.4-0.2 8.8 0 13.1-0.5 5.4-0.7 12.2 2.9 15.7-3.7 0.8-1.6-0.9-6-2.8-7.3-5.9-4.1-12.2-4.1-18 0.8-2.7 2.3-5.6 4.2-8.4 6.4-6.4 4.5-10.7 9.8-19.7 0.4-4.7-4.9-22.1-7.5-17.5 13.4 4.5 20.6-10.8 12.4-20.4 11.6-22.4 4.9-43.4 14.4-65.3 20.9-1 0.3-1.1 1.2-0.3 2.2 1.9 2.3-2.8-0.5-0.3-2.2 13.9-8.4 30.3-9.6 45.1-15.4 13-5.1 6.7-9.1-0.3-13.5-6.1-9.4-13.1-2.5-19.5-0.8-45.6 12-89.5 28.7-131.6 50-4.4 2.2-11.6 3.2-8.2 10.2 7.5 15.2-5.5 35.1 11.5 47.7-9 5.8-18 11.5-27 17.3-22.5 7.1-37.9 23.7-53.5 39.9-4.7 3.3-7.9 7-10.1 10.9 2.4-5.3 4.4-10.8 5.3-16.9-6.1-7.8-2.5-16-0.5-25-12 12.4-24 22.6-40.7 26.1-7 1.5-10.9 9.1-10.8 15.1 0.2 7.1 10.4 0.7 14.5 7.8-11.9 4.2-10.2 12.5-5.7 21.4 9.6 8.5 16.7 2.1 22.4-4.7 5-6 9.7-12.2 13.4-18.9-3 9-1.2 19 2.5 29.2 1.4 3.9 4.1 5.3-0.7 10.1-7.6 7.6-5-3.4-8.6-3.4-8.2 0-15.7-8-24.6-2.1-7.5 7.8-21.7 4-24.2 2.1-9.3-6.9 5.9-15.6 2.6-25.4-16.8 9.3-33.2 18.4-49.5 27.4-12.5 4.3-7.8 14.7-8.2 23.3-0.2 8.4-3.4 15.8-7.3 23-6.7 12.4 3.6 12.6 10.7 15.1 10.9 3.8 0.1-15.4 12.2-10.8-0.2 1.9-0.6 3.9-0.5 5.9 0.4 14.8-15.9 30.2-1.3 43.9 13.4 12.5 10.3 21.6-1 31.9 0.3-6.9-0.7-13.5-7.8-16.7-1.3-0.6-4.7 0.8-5.4 2.1-3.7 7.2-3.6 14.3 2.9 20.3 4.1 8.8 14.6 18.6-7.2 19.5-8.5 0.4-16.5 9.3-25.1 13.2-6 2.7-6.2 11.1-5.2 11.3 19.5 5 26.9 11.8 19.7 35.3-3.3 10.7 6.1 13.6-0.2 23.3-4 6.1-9.2 12-10.8 18.8-1.5 6.3-0.1 18.5 8.8 15.6 40.4-12.9 73.2 2.7 106.2 22.9 24.8 15.2 25.4 14.4 4.2 36-4.6-0.1-10.3-8.7-12.7-2.6-3.4 8.5 6.5 8.9 12.1 11.1 0 1.5 0.7 3.2 0.5 4.6 12-5.6 23 0.8 31.3 8 8.4 7.3-0.3 17.2-4 25.5-1.2 2.7-3.5 6.7-2.5 8.2 15.5 23.5 0.4 49.1 5.6 73.2-4.5 0.6-12.9-2.2-11.8 4.4 1.3 7.7 10.5 3.4 16.2 4.4 0.2-2.2 0.4-4.4 0.6-6.5 0.3 0 0.5 0.2 0.8 0.2 5.8-1.5 9.9-4.3 8.9-11.3-1.2-2.9 0.9-4 2.9-5.2 1.9-1.2 3.7-2.3 5.6-3.5 2.7-9.8 17.2 2.5 16.4-6.8-0.7-9.4-9.8-3.8-16.1-4.8 1.4-6.7-6.1-15.2 2.4-19.7 5.6-2.9 10.7 3.2 15.2 6.9 0.4 0.3 0.6 0.6 0.9 0.9-5.1 7.6 4 15.8 2.2 23.5 0.6 1.2 1.1 2.4 1.6 3.7 1.2 7.6 2.4 15.3 3.7 22.9-2 11.2 7.3 18.6 11.1 27.8 0 3 0.1 5.9 1.6 8.7-7.1 12.3 9.8 16.1 9.4 26.2-0.2 5.4 2 7.7 7.5 4.3 4.5-2.8 16-0.6 13.4-6.9-7.6-18.7 5.8-39.4-7-56.8 1.2-4.6 2.2-13.2 8.7-5.9 13.4 15.1 39.3 18.4 41.6 44.1 0.4 4.1 4.8 4.9 8.7 5.2 31.8 1.8 54.7 25.4 83.5 33.9 24.9 7.4 48.4 22.5 74.7 20.9 16.7-1 30.9 0.6 44.5 9.6 9.2 9.6 19 4.6 28.7 1.4l-24.3-5.7c-0.7-3-6.2-7.6-1.5-8.8 16.3-4.2 33.1-6.6 49.6-9.8 1-0.1 1.9-0.4 2.9-0.6-0.9 0.6-1.9 0.8-2.9 0.6 7.9 3.7 16.1 12.7 22.6-1.7 7.5-4.2 17-4.2 23.2-11 4.1-0.9 8.1-1.9 12.2-2.8 6.1-4.5 12-0.4 19.2 1.4-5.9-9.9-17-22 7-17.4 2.7 0.5 6.5-5.2 9.8-8 8.5 2.3 9.8-9.4 17.4-8.9 3.4 1.3 6.9 2.7 10.3 4 12.6-3.7 17.9-18.6 29.8-21.7 24.7-6.5 31.7-40.1 61.3-38.6 2.4 0.1 5.5-4.6 7.6-7.6 12.4-17.8 22.8-37.6 46.9-42.5 9.7-13.6 10.1-30.7 17.3-45.3-1.3-7.1 2.3-13.1 5-19 21-45.6 16.5-95.8 24.2-143.6 4.4-27.4-10.7-56.5-13.2-84.8zM314.2 821.6c-1.7 0.9-2.9 2-3.9 3.3-0.2-3.5-1.6-6.8-3.6-10.1-0.2-0.3-0.5-0.3-0.7-0.5 0.7-0.1 1.3-0.1 2-0.2 1.9-3.8 6.5-7.3 2.3-11.7 0.4-0.8 0.6-1.7 0.7-2.6 2.9 7.7 4.3 16.5 13.2 20-3.2 1.4-6.9 0.4-10 1.8z m27.5-554.9c-4.4 7.1-11.6 8.5-18.6 10.8-6.8 2.3-17.9 4.1-16.4 12.2 5.1 27.8-15.5 25.4-32.8 31.6 3.3-22 4.1-41.8 22.9-54.9 5.1-3.5 9-9 9.1-15.9 11.4 0.3 19.4-4.9 24.5-14.7h0.1c17.3 6.6 20.5 15.8 11.2 30.9z" p-id="5315"></path><path fill="#F6C5B8" d="M111 627.3c-12.3 0.5-15.8 10.3-19 19.4-1.6 4.7 1.5 8.2 9.3 7.6 4.9-7.4 22-0.1 22.8-15.7 0.4-6.8-5.1-11.6-13.1-11.3zM274.1 845.1c3.2-8.8-5.1-13.7-9.1-24.9-4.8 12.2-4.5 19.3 1.2 25.3 1.3 1.4 7.6 0.7 7.9-0.4zM634.9 111.1c-6.7-4.1-11.6-7-16.1-1.5-1.1 1.4 0.7 5.2 1.2 7.8 4.5-1.9 8.9-3.8 14.9-6.3zM271.9 850.3c-1.7 0.6-4.6 2.1-4.5 2.9 0.3 2.7 1.7 5.3 5.2 5.5 3.6 0.2 4.7-2.2 5.4-5.4-0.8-3.2-3.2-4-6.1-3zM344.4 904.6c5.2 5.5 7 11.7 15.2 10.2-2.7-6.3-5.8-10.2-15.2-10.2zM68.1 530.8c-3.1 0.9-4.4 3.5-4.1 6.6 0.4 3.2 2.3 5 5.6 5.1 3.3-1.3 3.3-4.2 3.2-7 0-3-0.7-5.9-4.7-4.7zM430.4 917.2c1.7 0.9 3.6 2.7 4.9 2.4 1.7-0.5 2.9-2.7 5-4.9-2.7-0.8-4.7-2.2-6.2-1.7-1.6 0.4-2.5 2.7-3.7 4.2zM598.2 98.3c2.3-3.5-1.8-2.5-2.9-3.3-5.1-0.7-7 1.9-6.6 6.2 0.1 1.6 1.5 3.1 2.3 4.6 2.4-2.5 5.3-4.6 7.2-7.5zM563.8 927.1c7.1 4 13 4.8 20.1 0.5-6.1-3.4-11.5-2.8-20.1-0.5z" p-id="5316"></path></svg>
